<?xml version="1.0" encoding="iso-8859-1"?>
<!-- Generator: Adobe Illustrator 19.0.0, SVG Export Plug-In . SVG Version: 6.00 Build 0)  -->
<svg version="1.1" id="Layer_1" xmlns="http://www.w3.org/2000/svg" xmlns:xlink="http://www.w3.org/1999/xlink" x="0px" y="0px"
	 viewBox="0 0 469.987 469.987" style="enable-background:new 0 0 469.987 469.987;" xml:space="preserve">
<g>
	<g>
		<path d="M461.135,171.012c0-0.002-0.001-0.003-0.001-0.003c-10.86-38.468-31.592-73.792-59.954-102.156
			c-30.396-30.391-68.495-51.876-110.177-62.135c-0.007-0.001-0.013-0.004-0.02-0.005C272.722,2.259,253.91,0,235.07,0
			C172.273,0,113.239,24.453,68.841,68.854C39.77,97.928,18.774,134.16,8.125,173.632C-2.2,211.899-2.69,252.483,6.707,290.996
			c0.001,0.004,0.002,0.008,0.003,0.012c10.212,41.638,31.697,79.739,62.132,110.185c28.361,28.36,63.685,49.092,102.155,59.953
			c21.066,5.946,42.536,8.843,63.853,8.841c61.541-0.004,121.696-24.16,166.332-68.794c30.099-30.099,51.447-67.708,61.738-108.763
			C472.91,252.575,472.293,210.589,461.135,171.012z M296.783,29.025c34.007,10.23,65.03,28.748,90.256,53.97
			c23.22,23.223,40.827,51.547,51.395,82.457c-32.61,5.104-64.073,15.013-93.681,29.547c-29.403,14.434-56.306,33.089-80.122,55.502
			l-52.197-52.197c21.849-23.213,40.139-49.367,54.419-77.889C281.302,91.554,291.34,60.859,296.783,29.025z M235.07,20
			c14.196,0,28.372,1.401,42.264,4.17c-5.051,30.424-14.575,59.748-28.365,87.291c-13.318,26.602-30.339,51.017-50.672,72.706
			L90.215,76.085C129.906,39.842,180.961,20,235.07,20z M27.434,178.841c8.875-32.894,25.634-63.316,48.663-88.59l108.048,108.047
			c-21.708,20.355-46.115,37.4-72.698,50.72c-27.56,13.81-56.875,23.308-87.261,28.319
			C17.699,244.782,18.778,210.924,27.434,178.841z M165.427,438.442c-30.907-10.569-59.227-28.174-82.442-51.389
			c-25.25-25.26-43.767-56.274-53.967-90.229c31.809-5.404,62.502-15.45,91.389-29.923c28.503-14.282,54.665-32.571,77.897-54.442
			l52.185,52.185c-22.436,23.835-41.103,50.737-55.538,80.12C180.394,374.395,170.493,405.856,165.427,438.442z M184.791,444.079
			c9.104-61.639,37.169-119.699,79.849-165.285l115.161,115.161C327.243,441.828,254.065,460.664,184.791,444.079z M443.52,287.568
			c-8.605,34.323-25.666,66.02-49.574,92.249L278.771,264.642c45.499-42.588,103.567-70.637,165.295-79.828
			C452.127,218.549,451.961,253.89,443.52,287.568z"/>
	</g>
</g>
<g>
</g>
<g>
</g>
<g>
</g>
<g>
</g>
<g>
</g>
<g>
</g>
<g>
</g>
<g>
</g>
<g>
</g>
<g>
</g>
<g>
</g>
<g>
</g>
<g>
</g>
<g>
</g>
<g>
</g>
</svg>
